{"title":"Ellie Goulding - How Long Will I Love You [Music Video] 1080p [S","uid":9162470,"size":62275894,"categoryP":"video","categoryS":"music_videos","magnet":"?xt=urn:btih:f2449f13cd7a1bd99d41e0b911cd8349da6718a8&amp;dn=Ellie+Goulding+-+How+Long+Will+I+Love+You+%5BMusic+Video%5D+1080p+%5BS&amp;tr=udp%3A%2F%2Ftracker.openbittorrent.com%3A80&amp;tr=udp%3A%2F%2Fopen.demonii.com%3A1337&amp;tr=udp%3A%2F%2Ftracker.coppersurfer.tk%3A6969&amp;tr=udp%3A%2F%2Fexodus.desync.com%3A6969","seeders":4,"leechers":0,"uploader":"Sbyky","files":1,"time":1383893038,"description":"[IMG]http://cdn.piczend.com/images/zf1rJhTJ/1383848622_howlongwilliloveyou.jpg[/IMG]\n\nGeneral\nComplete name                            : Ellie Goulding - How Long Will I Love You [Music Video] 1080p [Sbyky].MP4\nFormat                                   : MPEG-4\nFormat profile                           : Base Media\nCodec ID                                 : isom\nFile size                                : 59.4 MiB\nDuration                                 : 2mn 43s\nOverall bit rate mode                    : Variable\nOverall bit rate                         : 3 050 Kbps\nEncoded date                             : UTC 2013-09-08 06:01:40\nTagged date                              : UTC 2013-09-08 06:01:40\n\nVideo\nID                                       : 1\nFormat                                   : AVC\nFormat/Info                              : Advanced Video Codec\nFormat profile                           : &lt;a class=&quot;__cf_email__&quot; href=&quot;/cdn-cgi/l/email-protection&quot; data-cfemail=&quot;c48cada3ac8488f0eaf4&quot;&gt;[email&amp;#160;protected]&lt;/a&gt;&lt;script cf-hash='f9e31' type=&quot;text/javascript&quot;&gt;\n/* &lt;![CDATA[ */!function(){try{var t=&quot;currentScript&quot;in document?document.currentScript:function(){for(var t=document.getElementsByTagName(&quot;script&quot;),e=t.length;e--;)if(t[e].getAttribute(&quot;cf-hash&quot;))return t[e]}();if(t&amp;&amp;t.previousSibling){var e,r,n,i,c=t.previousSibling,a=c.getAttribute(&quot;data-cfemail&quot;);if(a){for(e=&quot;&quot;,r=parseInt(a.substr(0,2),16),n=2;a.length-n;n+=2)i=parseInt(a.substr(n,2),16)^r,e+=String.fromCharCode(i);e=document.createTextNode(e),c.parentNode.replaceChild(e,c)}}}catch(u){}}();/* ]]&gt; */&lt;/script&gt;\nFormat settings, CABAC                   : Yes\nFormat settings, ReFrames                : 2 frames\nCodec ID                                 : avc1\nCodec ID/Info                            : Advanced Video Coding\nDuration                                 : 2mn 43s\nBit rate                                 : 2 795 Kbps\nWidth                                    : 1 920 pixels\nHeight                                   : 1 080 pixels\nDisplay aspect ratio                     : 16:9\nFrame rate mode                          : Constant\nFrame rate                               : 25.000 fps\nColor space                              : YUV\nChroma subsampling                       : 4:2:0\nBit depth                                : 8 bits\nScan type                                : Progressive\nBits/(Pixel*Frame)                       : 0.054\nStream size                              : 54.4 MiB (92%)\nEncoded date                             : UTC 2013-09-08 06:01:40\nTagged date                              : UTC 2013-09-08 06:01:40\n\nAudio\nID                                       : 2\nFormat                                   : AAC\nFormat/Info                              : Advanced Audio Codec\nFormat profile                           : LC\nCodec ID                                 : 40\nDuration                                 : 2mn 43s\nBit rate mode                            : Variable\nBit rate                                 : 254 Kbps\nChannel(s)                               : 2 channels\nChannel positions                        : Front: L R\nSampling rate                            : 44.1 KHz\nCompression mode                         : Lossy\nDelay relative to video                  : -3s 600ms\nStream size                              : 4.94 MiB (8%)\nEncoded date                             : UTC 2013-09-08 06:01:17\nTagged date                              : UTC 2013-09-08 06:01:17\n\nShared By Sbyky\n[IMG]http://cdn.piczend.com/images/X3Ag13N3/1379453786_saythanks.gif[/IMG]\n[IMG]http://cdn.piczend.com/images/gGqhX2S8/1379453780_keepseeding.gif[/IMG]","torrent":{"xt":"urn:btih:f2449f13cd7a1bd99d41e0b911cd8349da6718a8","amp;dn":"Ellie+Goulding+-+How+Long+Will+I+Love+You+%5BMusic+Video%5D+1080p+%5BS","amp;tr":["udp%3A%2F%2Ftracker.openbittorrent.com%3A80","udp%3A%2F%2Fopen.demonii.com%3A1337","udp%3A%2F%2Ftracker.coppersurfer.tk%3A6969","udp%3A%2F%2Fexodus.desync.com%3A6969"],"infoHash":"f2449f13cd7a1bd99d41e0b911cd8349da6718a8","infoHashBuffer":{"type":"Buffer","data":[242,68,159,19,205,122,27,217,157,65,224,185,17,205,131,73,218,103,24,168]},"announce":[],"urlList":[]}}